<svg xmlns="http://www.w3.org/2000/svg" version="1.1" xmlns:xlink="http://www.w3.org/1999/xlink" xmlns:svgjs="http://svgjs.dev/svgjs" width="1440" height="560" preserveAspectRatio="none" viewBox="0 0 1440 560"><g mask="url(&quot;#SvgjsMask1033&quot;)" fill="none"><rect width="1440" height="560" x="0" y="0" fill="#0e2a47"></rect><path d="M1100.81 74.76 a145.86 145.86 0 1 0 291.72 0 a145.86 145.86 0 1 0 -291.72 0z" fill="rgba(128, 140, 128, 1)" class="triangle-float1"></path><path d="M1249.55 450.51 a164.69 164.69 0 1 0 329.38 0 a164.69 164.69 0 1 0 -329.38 0z" fill="rgba(128, 140, 128, 1)" class="triangle-float1"></path><path d="M401.79 30.66 a176.41 176.41 0 1 0 352.82 0 a176.41 176.41 0 1 0 -352.82 0z" fill="rgba(128, 140, 128, 1)" class="triangle-float1"></path><path d="M1032.93 309.23 a93.98 93.98 0 1 0 187.96 0 a93.98 93.98 0 1 0 -187.96 0z" fill="rgba(128, 140, 128, 1)" class="triangle-float1"></path><path d="M1269.84 417.37 a124.95 124.95 0 1 0 249.9 0 a124.95 124.95 0 1 0 -249.9 0z" fill="rgba(128, 140, 128, 1)" class="triangle-float2"></path></g><defs><mask id="SvgjsMask1033"><rect width="1440" height="560" fill="#ffffff"></rect></mask><style>
                @keyframes float1 {
                    0%{transform: translate(0, 0)}
                    50%{transform: translate(-10px, 0)}
                    100%{transform: translate(0, 0)}
                }

                .triangle-float1 {
                    animation: float1 5s infinite;
                }

                @keyframes float2 {
                    0%{transform: translate(0, 0)}
                    50%{transform: translate(-5px, -5px)}
                    100%{transform: translate(0, 0)}
                }

                .triangle-float2 {
                    animation: float2 4s infinite;
                }

                @keyframes float3 {
                    0%{transform: translate(0, 0)}
                    50%{transform: translate(0, -10px)}
                    100%{transform: translate(0, 0)}
                }

                .triangle-float3 {
                    animation: float3 6s infinite;
                }
            </style></defs></svg>